<svg width="242" height="57" viewBox="0 0 242 57" fill="none" xmlns="http://www.w3.org/2000/svg">
<g clip-path="url(#clip0_178_5981)">
<path d="M179.697 53.6835C179.116 53.2999 178.694 52.7244 178.505 52.0605L178.107 51.0413H173.656L172.384 54.0206H171.669L176.12 43.6712H176.597L180.095 52.0605C180.263 52.5189 180.513 52.9438 180.834 53.315C181.111 53.5567 181.465 53.6953 181.835 53.707V54.0206C181.628 54.0749 181.414 54.1012 181.2 54.099C180.671 54.0916 180.153 53.9484 179.697 53.6835ZM177.789 50.414L175.882 45.8666L173.895 50.414H177.789Z" fill="white"/>
<path d="M183.33 53.5502C182.826 53.1321 182.575 52.4003 182.575 51.3549V48.5323C182.599 48.1282 182.523 47.7243 182.352 47.3563C182.254 47.2167 182.12 47.1063 181.963 47.0372C181.806 46.9681 181.632 46.9428 181.462 46.9642H181.303V46.6506H182.575C182.876 46.6334 183.178 46.6844 183.457 46.7996C183.56 46.8571 183.651 46.9347 183.723 47.0277C183.796 47.1206 183.848 47.2271 183.878 47.3406C183.977 47.7247 184.019 48.1207 184.005 48.5167V51.3549C183.955 51.9344 184.134 52.5108 184.506 52.9622C184.666 53.1284 184.86 53.2596 185.075 53.3474C185.29 53.4352 185.521 53.4776 185.754 53.4718C186.064 53.4555 186.367 53.3728 186.642 53.2292C186.916 53.0857 187.156 52.8849 187.344 52.6407V46.6506H188.783V54.0206H187.988L187.431 53.3934H187.352C187.101 53.6307 186.807 53.8196 186.485 53.9501C186.108 54.1052 185.702 54.1826 185.293 54.1774C184.583 54.2113 183.885 53.9883 183.33 53.5502Z" fill="white"/>
<path d="M191.874 53.6796C191.69 53.469 191.55 53.2243 191.463 52.9598C191.376 52.6952 191.343 52.4162 191.366 52.1389V47.2779H190.253V46.6506H191.366V45.2393L192.161 44.2985H192.797V46.6506H194.704V47.2779H192.797V52.1389C192.797 53.0798 193.167 53.5502 193.909 53.5502C194.127 53.555 194.344 53.5286 194.553 53.4718C194.744 53.4128 194.928 53.3339 195.102 53.2366L195.261 53.5502C195.015 53.7305 194.748 53.8806 194.466 53.9971C194.084 54.1317 193.679 54.1929 193.273 54.1774C193.018 54.192 192.763 54.1554 192.522 54.0698C192.282 53.9842 192.061 53.8515 191.874 53.6796Z" fill="white"/>
<path d="M197.63 53.6678C197.107 53.3268 196.693 52.8453 196.438 52.2801C196.165 51.6671 196.024 51.005 196.024 50.3356C196.024 49.6663 196.165 49.0042 196.438 48.3912C196.693 47.8261 197.107 47.3446 197.63 47.0034C198.197 46.67 198.845 46.4939 199.506 46.4939C200.166 46.4939 200.814 46.67 201.382 47.0034C201.905 47.3448 202.319 47.8262 202.574 48.3912C202.847 49.0042 202.987 49.6663 202.987 50.3356C202.987 51.005 202.847 51.6671 202.574 52.2801C202.319 52.8452 201.905 53.3266 201.382 53.6678C200.815 54.0017 200.166 54.178 199.506 54.178C198.845 54.178 198.197 54.0017 197.63 53.6678ZM200.547 53.1268C200.877 52.7991 201.118 52.3946 201.247 51.9508C201.575 50.8877 201.575 49.7522 201.247 48.6891C201.118 48.2453 200.877 47.8408 200.547 47.5131C200.27 47.2421 199.896 47.09 199.506 47.09C199.116 47.09 198.742 47.2421 198.465 47.5131C198.135 47.8408 197.894 48.2453 197.765 48.6891C197.436 49.7522 197.436 50.8877 197.765 51.9508C197.894 52.3946 198.135 52.7991 198.465 53.1268C198.742 53.3978 199.116 53.5499 199.506 53.5499C199.896 53.5499 200.27 53.3978 200.547 53.1268Z" fill="white"/>
<path d="M209.076 48.5362C209.101 48.1321 209.025 47.7282 208.854 47.3602C208.756 47.2206 208.621 47.1103 208.464 47.0411C208.307 46.972 208.134 46.9467 207.963 46.9682H207.646V46.6506H209.076C209.39 46.6335 209.703 46.6899 209.99 46.8153C210.202 46.9321 210.359 47.1264 210.428 47.3563C210.719 47.0705 211.067 46.8465 211.45 46.6982C211.833 46.5499 212.242 46.4803 212.653 46.4938C213.071 46.4783 213.486 46.5707 213.857 46.7618C214.228 46.953 214.542 47.2362 214.768 47.5836C215.291 48.4033 215.552 49.3597 215.515 50.3278C215.551 51.2991 215.282 52.2578 214.744 53.0719C214.493 53.4261 214.155 53.7113 213.761 53.9006C213.368 54.0899 212.932 54.1771 212.494 54.1539C212.135 54.1592 211.777 54.117 211.429 54.0285C211.112 53.9414 210.803 53.8259 210.507 53.6835V56.9765H209.076V48.5362ZM213.52 52.676C213.877 51.9438 214.043 51.1355 214.005 50.3239C214.039 49.5227 213.881 48.7249 213.543 47.9953C213.431 47.7303 213.24 47.5046 212.997 47.3468C212.753 47.189 212.468 47.1063 212.176 47.1093C211.838 47.1034 211.504 47.1877 211.211 47.3533C210.917 47.5189 210.674 47.7597 210.507 48.0501V53.068C210.825 53.2144 211.101 53.3294 211.334 53.413C211.552 53.4941 211.784 53.5366 212.017 53.5385C212.326 53.5537 212.633 53.4799 212.899 53.326C213.166 53.1722 213.382 52.9449 213.52 52.6721V52.676Z" fill="white"/>
<path d="M218.138 53.9697C217.779 53.8221 217.469 53.5809 217.239 53.2719C216.974 52.8957 216.843 52.4436 216.866 51.986C216.849 51.6235 216.949 51.2651 217.15 50.9612C217.351 50.6574 217.644 50.4235 217.987 50.2925C218.918 49.9242 219.917 49.7533 220.92 49.7907H221.397C221.397 48.7662 221.254 48.0658 220.967 47.6895C220.823 47.5025 220.635 47.3532 220.419 47.2548C220.203 47.1563 219.965 47.1118 219.727 47.125C219.325 47.1101 218.928 47.2183 218.591 47.4347C218.267 47.6944 218.052 48.063 217.987 48.4696H217.271C217.265 48.1886 217.286 47.9077 217.335 47.6307C217.386 47.4114 217.502 47.2122 217.669 47.0583C217.938 46.8341 218.266 46.69 218.615 46.6428C219.088 46.5509 219.57 46.5062 220.053 46.5095C220.795 46.4691 221.525 46.7135 222.088 47.1916C222.586 47.6464 222.835 48.5166 222.835 49.8025V54.0363H222.04L221.484 53.3307H221.405C221.178 53.5982 220.889 53.808 220.562 53.9422C220.124 54.1222 219.653 54.2078 219.179 54.1931C218.82 54.1871 218.466 54.1112 218.138 53.9697ZM220.761 53.2248C221.014 53.0358 221.23 52.8019 221.397 52.5349V50.4179H220.92C220.271 50.3848 219.626 50.5344 219.06 50.8492C218.853 50.9612 218.681 51.1257 218.561 51.3256C218.44 51.5256 218.377 51.7536 218.376 51.986C218.363 52.1906 218.395 52.3956 218.47 52.5866C218.546 52.7776 218.663 52.9499 218.813 53.0915C219.107 53.3521 219.491 53.4923 219.886 53.4836C220.199 53.4915 220.506 53.3994 220.761 53.2209V53.2248Z" fill="white"/>
<path d="M225.164 48.5362C225.189 48.1321 225.113 47.7282 224.942 47.3602C224.844 47.2206 224.709 47.1103 224.552 47.0411C224.395 46.972 224.222 46.9467 224.052 46.9682H223.893V46.6506H225.164C225.478 46.6335 225.791 46.6899 226.078 46.8153C226.291 46.9318 226.448 47.1262 226.516 47.3563C226.769 47.1126 227.058 46.9089 227.374 46.7525C227.724 46.5776 228.111 46.4888 228.503 46.4938C228.838 46.4708 229.172 46.5532 229.457 46.729C229.687 46.9265 229.876 47.1662 230.013 47.4347L229.377 47.9051C229.248 47.7393 229.07 47.6162 228.868 47.5523C228.623 47.4701 228.365 47.4303 228.105 47.4347C227.801 47.4314 227.5 47.5042 227.231 47.6464C226.973 47.7809 226.755 47.9779 226.595 48.2187V54.0206H225.164V48.5362Z" fill="white"/>
<path d="M232.159 53.6796C231.975 53.4695 231.835 53.2254 231.748 52.9616C231.661 52.6978 231.627 52.4195 231.65 52.1429V47.2779H230.537V46.6506H231.65V45.2393L232.445 44.2985H233.081V46.6506H234.988V47.2779H233.081V52.1389C233.081 53.0798 233.452 53.5502 234.194 53.5502C234.411 53.555 234.628 53.5286 234.837 53.4718C235.028 53.4128 235.212 53.3339 235.386 53.2366L235.545 53.5502C235.299 53.7305 235.032 53.8806 234.75 53.9971C234.368 54.1317 233.963 54.1929 233.558 54.1774C233.302 54.192 233.047 54.1554 232.806 54.0698C232.566 53.9842 232.346 53.8515 232.159 53.6796Z" fill="white"/>
<path d="M236.754 53.5502C236.582 53.388 236.465 53.177 236.42 52.9465C236.369 52.6013 236.348 52.2525 236.356 51.9037H236.674C236.743 52.3798 236.989 52.8133 237.366 53.119C237.812 53.4322 238.353 53.5844 238.9 53.5502C239.357 53.5811 239.814 53.4774 240.211 53.2523C240.346 53.1687 240.456 53.053 240.533 52.9159C240.609 52.7787 240.649 52.6247 240.649 52.4682C240.65 52.3213 240.62 52.1757 240.561 52.0407C240.503 51.9057 240.416 51.7843 240.307 51.6842C239.987 51.4101 239.617 51.1974 239.218 51.057L238.264 50.6649C237.729 50.4765 237.241 50.177 236.833 49.7868C236.515 49.4518 236.344 49.0067 236.356 48.548C236.344 48.2584 236.405 47.9703 236.532 47.7092C236.66 47.4481 236.851 47.2218 237.088 47.0505C237.641 46.67 238.306 46.4798 238.979 46.5095C240.145 46.5095 240.94 46.7186 241.364 47.1367C241.534 47.2971 241.651 47.505 241.698 47.7326C241.749 48.0804 241.77 48.4319 241.761 48.7832H241.444C241.386 48.3091 241.147 47.8746 240.776 47.568C240.349 47.2596 239.826 47.1072 239.297 47.1367C238.885 47.1133 238.475 47.2204 238.129 47.4425C237.999 47.5289 237.892 47.6457 237.819 47.7825C237.745 47.9192 237.707 48.0718 237.708 48.2265C237.708 48.7702 238.132 49.2144 238.979 49.5594L239.933 49.9514C240.52 50.1571 241.06 50.4741 241.523 50.8845C241.7 51.0775 241.833 51.305 241.915 51.5521C241.997 51.7993 242.025 52.0606 241.998 52.3193C241.971 52.5779 241.89 52.8281 241.758 53.0536C241.627 53.2792 241.45 53.4751 241.237 53.6286C240.647 54.0076 239.953 54.1966 239.25 54.1696C238.01 54.1774 237.178 53.971 236.754 53.5502Z" fill="white"/>
<path d="M74.2729 41.225H77.1027L61.0899 4.43769H57.7117L41.5479 41.2211H44.2624L49.8464 28.3824H68.7565L74.2729 41.225ZM50.7605 26.2929L58.5065 8.48728L59.369 5.22173L60.295 8.68329L67.8463 26.2929H50.7605Z" fill="white"/>
<path d="M174.276 4.42201V41.2564L176.899 41.2525V4.43377L174.276 4.42201Z" fill="white"/>
<path d="M106.751 20.7262C108.484 16.9118 108.27 13.023 105.651 9.44773C104.669 8.07903 103.387 6.94562 101.901 6.13133C100.415 5.31704 98.7628 4.84272 97.0659 4.74347C92.2966 4.42201 82.8734 4.42985 82.8734 4.42985H82.7979V41.2799H85.417V6.66437C88.2865 6.66437 93.632 6.71534 96.0445 6.77806C98.29 6.83294 102.006 8.44023 103.449 10.6983C106.032 14.7479 105.213 17.6449 104.244 19.7814C103.743 20.9325 102.993 21.9613 102.046 22.7958C101.099 23.6302 99.9787 24.2498 98.7629 24.6111C97.2821 25.0032 95.7573 25.2112 94.2242 25.2305H91.2275L103.381 41.2603H106.604L95.345 26.6575C96.6565 26.6222 98.2145 26.5713 99.0292 26.4889C101.859 26.1949 105.178 24.1956 106.751 20.7262Z" fill="white"/>
<path d="M134.382 6.66045V4.42201H114.554V4.42593V6.66045V21.2358V23.5017V39.018V41.2564V41.2721L117.173 41.2642V41.2564H134.382V39.018H117.173V23.5017H133.79V21.2358H117.173V6.66045H134.382Z" fill="white"/>
<path d="M168.132 41.2564L155.351 22.4001L167.472 4.42593H164.424L153.808 20.1225L143.169 4.42593H140.113L152.266 22.4041L139.517 41.2564L142.633 41.2721L153.808 24.6895L165.012 41.2721L168.132 41.2564Z" fill="white"/>
<path d="M221.519 4.41809L221.523 4.40633H218.884L205.642 36.6345L204.891 39.3355L204.1 36.6462L190.197 4.41809H187.423L187.427 4.42593L185.356 4.41809V41.2721L187.976 41.2642V5.6804L203.603 41.2603H206.134L221.126 5.35894V41.2603L223.745 41.2642V4.42593L221.519 4.41809Z" fill="white"/>
<path fill-rule="evenodd" clip-rule="evenodd" d="M21.5412 0L19.5086 3.55172H20.9018L20.8728 19.8799L9.54497 7.99461L10.5123 7.13087L6.73662 5.70783L7.77857 9.5L8.795 8.65716L20.4179 20.852L3.60917 21.0616L3.62861 19.5893L0 21.3456L3.58092 23.3182L3.59619 22.0615L20.3913 21.8521L7.91959 33.7209L6.91429 32.8182L5.82633 36.6658L9.67751 35.5015L8.64417 34.4313L9.38571 33.7061L20.8677 22.7792L20.8389 38.9591H19.3089L21.5174 42.5187L23.3814 38.9983L21.883 38.9709L21.8581 28.3803L21.8688 22.3743L33.3941 34.4668L32.4107 35.4091L36.2822 36.6658L35.1375 32.8593L34.127 33.7864L22.7247 21.823L39.5014 21.6137V22.9294L43.1061 21.13L39.5014 19.358V20.614L22.9255 20.8207L34.4727 9.83176L35.4357 10.7955L36.5244 6.81727L32.6931 8.03253L33.7225 9.07531L30.3183 12.4049L21.8722 20.4427L21.9022 3.55642L23.3456 3.5674L21.5412 0Z" fill="white"/>
</g>
<defs>
<clipPath id="clip0_178_5981">
<rect width="242" height="57" fill="white"/>
</clipPath>
</defs>
</svg>
