<svg width="242" height="57" viewBox="0 0 242 57" fill="none" xmlns="http://www.w3.org/2000/svg">
<g clip-path="url(#clip0_178_5970)">
<path d="M179.697 53.6834C179.116 53.2998 178.694 52.7243 178.505 52.0604L178.107 51.0412H173.656L172.384 54.0205H171.669L176.12 43.6711H176.597L180.095 52.0604C180.263 52.5188 180.513 52.9437 180.834 53.3149C181.111 53.5566 181.465 53.6952 181.835 53.7069V54.0205C181.628 54.0748 181.414 54.1011 181.2 54.0989C180.671 54.0915 180.153 53.9483 179.697 53.6834ZM177.789 50.4139L175.882 45.8665L173.895 50.4139H177.789Z" fill="#1B202D"/>
<path d="M183.33 53.5501C182.826 53.1319 182.575 52.4001 182.575 51.3547V48.5322C182.599 48.1281 182.523 47.7242 182.352 47.3561C182.254 47.2166 182.12 47.1062 181.963 47.037C181.806 46.9679 181.632 46.9427 181.462 46.9641H181.303V46.6505H182.575C182.876 46.6333 183.178 46.6842 183.457 46.7994C183.56 46.857 183.651 46.9346 183.723 47.0275C183.796 47.1205 183.848 47.2269 183.878 47.3404C183.977 47.7246 184.019 48.1205 184.005 48.5165V51.3547C183.955 51.9343 184.134 52.5106 184.506 52.962C184.666 53.1282 184.86 53.2595 185.075 53.3472C185.29 53.435 185.521 53.4774 185.754 53.4717C186.064 53.4554 186.367 53.3726 186.642 53.2291C186.916 53.0855 187.156 52.8847 187.344 52.6406V46.6505H188.783V54.0205H187.988L187.431 53.3933H187.352C187.101 53.6306 186.807 53.8194 186.485 53.9499C186.108 54.1051 185.702 54.1825 185.293 54.1773C184.583 54.2112 183.885 53.9881 183.33 53.5501Z" fill="#1B202D"/>
<path d="M191.874 53.6794C191.69 53.4688 191.55 53.2241 191.463 52.9596C191.376 52.6951 191.343 52.416 191.366 52.1388V47.2777H190.253V46.6505H191.366V45.2392L192.161 44.2983H192.797V46.6505H194.704V47.2777H192.797V52.1388C192.797 53.0796 193.167 53.5501 193.909 53.5501C194.127 53.5549 194.344 53.5284 194.553 53.4717C194.744 53.4126 194.928 53.3338 195.102 53.2364L195.261 53.5501C195.015 53.7304 194.748 53.8804 194.466 53.997C194.084 54.1316 193.679 54.1928 193.273 54.1773C193.018 54.1918 192.763 54.1552 192.522 54.0697C192.282 53.9841 192.061 53.8513 191.874 53.6794Z" fill="#1B202D"/>
<path d="M197.63 53.6678C197.107 53.3268 196.693 52.8453 196.438 52.2801C196.165 51.6671 196.024 51.005 196.024 50.3356C196.024 49.6663 196.165 49.0042 196.438 48.3912C196.693 47.8261 197.107 47.3446 197.63 47.0034C198.197 46.67 198.845 46.4939 199.506 46.4939C200.166 46.4939 200.814 46.67 201.382 47.0034C201.905 47.3448 202.319 47.8262 202.574 48.3912C202.847 49.0042 202.987 49.6663 202.987 50.3356C202.987 51.005 202.847 51.6671 202.574 52.2801C202.319 52.8452 201.905 53.3266 201.382 53.6678C200.815 54.0017 200.166 54.178 199.506 54.178C198.845 54.178 198.197 54.0017 197.63 53.6678ZM200.547 53.1268C200.877 52.7991 201.118 52.3946 201.247 51.9508C201.575 50.8876 201.575 49.7522 201.247 48.6891C201.118 48.2453 200.877 47.8408 200.547 47.5131C200.27 47.2421 199.896 47.09 199.506 47.09C199.116 47.09 198.742 47.2421 198.465 47.5131C198.135 47.8408 197.894 48.2453 197.765 48.6891C197.436 49.7522 197.436 50.8877 197.765 51.9508C197.894 52.3946 198.135 52.7991 198.465 53.1268C198.742 53.3978 199.116 53.5499 199.506 53.5499C199.896 53.5499 200.27 53.3978 200.547 53.1268Z" fill="#1B202D"/>
<path d="M209.076 48.5363C209.101 48.1322 209.025 47.7283 208.854 47.3602C208.756 47.2207 208.621 47.1103 208.464 47.0412C208.307 46.972 208.134 46.9468 207.963 46.9682H207.646V46.6507H209.076C209.39 46.6335 209.703 46.6899 209.99 46.8153C210.202 46.9321 210.359 47.1264 210.428 47.3563C210.719 47.0705 211.067 46.8466 211.45 46.6983C211.833 46.55 212.242 46.4804 212.653 46.4939C213.071 46.4784 213.486 46.5708 213.857 46.7619C214.228 46.953 214.542 47.2363 214.768 47.5837C215.291 48.4033 215.552 49.3598 215.515 50.3278C215.551 51.2992 215.282 52.2578 214.744 53.072C214.493 53.4261 214.155 53.7113 213.761 53.9006C213.368 54.0899 212.932 54.1771 212.494 54.154C212.135 54.1593 211.777 54.1171 211.429 54.0285C211.112 53.9414 210.803 53.826 210.507 53.6835V56.9765H209.076V48.5363ZM213.52 52.676C213.877 51.9439 214.043 51.1355 214.005 50.3239C214.039 49.5227 213.881 48.7249 213.543 47.9953C213.431 47.7304 213.24 47.5046 212.997 47.3468C212.753 47.189 212.468 47.1064 212.176 47.1093C211.838 47.1035 211.504 47.1878 211.211 47.3534C210.917 47.519 210.674 47.7597 210.507 48.0502V53.0681C210.825 53.2144 211.101 53.3294 211.334 53.413C211.552 53.4942 211.784 53.5366 212.017 53.5385C212.326 53.5538 212.633 53.48 212.899 53.3261C213.166 53.1722 213.382 52.945 213.52 52.6721V52.676Z" fill="#1B202D"/>
<path d="M218.138 53.9696C217.779 53.8221 217.469 53.5808 217.239 53.2718C216.974 52.8957 216.843 52.4435 216.866 51.986C216.849 51.6235 216.949 51.2651 217.15 50.9612C217.351 50.6574 217.644 50.4234 217.987 50.2925C218.918 49.9242 219.917 49.7532 220.92 49.7907H221.397C221.397 48.7662 221.254 48.0658 220.967 47.6894C220.823 47.5024 220.635 47.3531 220.419 47.2547C220.203 47.1563 219.965 47.1117 219.727 47.1249C219.325 47.1101 218.928 47.2182 218.591 47.4346C218.267 47.6944 218.052 48.0629 217.987 48.4696H217.271C217.265 48.1885 217.286 47.9076 217.335 47.6306C217.386 47.4114 217.502 47.2121 217.669 47.0583C217.938 46.8341 218.266 46.6899 218.615 46.6427C219.088 46.5508 219.57 46.5062 220.053 46.5094C220.795 46.469 221.525 46.7135 222.088 47.1916C222.586 47.6463 222.835 48.5166 222.835 49.8024V54.0363H222.04L221.484 53.3306H221.405C221.178 53.5982 220.889 53.8079 220.562 53.9422C220.124 54.1222 219.653 54.2077 219.179 54.1931C218.82 54.1871 218.466 54.1111 218.138 53.9696ZM220.761 53.2248C221.014 53.0358 221.23 52.8018 221.397 52.5348V50.4179H220.92C220.271 50.3847 219.626 50.5343 219.06 50.8491C218.853 50.9611 218.681 51.1257 218.561 51.3256C218.44 51.5255 218.377 51.7535 218.376 51.986C218.363 52.1906 218.395 52.3956 218.47 52.5866C218.546 52.7776 218.663 52.9499 218.813 53.0915C219.107 53.352 219.491 53.4922 219.886 53.4835C220.199 53.4915 220.506 53.3993 220.761 53.2209V53.2248Z" fill="#1B202D"/>
<path d="M225.164 48.5362C225.189 48.1321 225.113 47.7282 224.942 47.3601C224.844 47.2206 224.709 47.1102 224.552 47.0411C224.395 46.9719 224.222 46.9467 224.052 46.9681H223.893V46.6506H225.164C225.478 46.6334 225.791 46.6899 226.078 46.8152C226.291 46.9317 226.448 47.1261 226.516 47.3562C226.769 47.1125 227.058 46.9089 227.374 46.7525C227.724 46.5775 228.111 46.4887 228.503 46.4938C228.838 46.4708 229.172 46.5531 229.457 46.729C229.687 46.9265 229.876 47.1661 230.013 47.4346L229.377 47.905C229.248 47.7393 229.07 47.6162 228.868 47.5522C228.623 47.4701 228.365 47.4303 228.105 47.4346C227.801 47.4313 227.5 47.5042 227.231 47.6463C226.973 47.7809 226.755 47.9778 226.595 48.2187V54.0206H225.164V48.5362Z" fill="#1B202D"/>
<path d="M232.159 53.6794C231.975 53.4693 231.835 53.2253 231.748 52.9615C231.661 52.6976 231.627 52.4193 231.65 52.1427V47.2777H230.537V46.6505H231.65V45.2392L232.445 44.2983H233.081V46.6505H234.988V47.2777H233.081V52.1388C233.081 53.0796 233.452 53.5501 234.194 53.5501C234.411 53.5549 234.628 53.5284 234.837 53.4717C235.028 53.4126 235.212 53.3338 235.386 53.2364L235.545 53.5501C235.299 53.7304 235.032 53.8804 234.75 53.997C234.368 54.1316 233.963 54.1928 233.558 54.1773C233.302 54.1918 233.047 54.1552 232.806 54.0697C232.566 53.9841 232.346 53.8513 232.159 53.6794Z" fill="#1B202D"/>
<path d="M236.754 53.5501C236.582 53.3878 236.465 53.1769 236.42 52.9464C236.369 52.6011 236.348 52.2523 236.356 51.9036H236.674C236.743 52.3796 236.989 52.8132 237.366 53.1188C237.812 53.432 238.353 53.5843 238.9 53.5501C239.357 53.5809 239.814 53.4773 240.211 53.2521C240.346 53.1686 240.456 53.0528 240.533 52.9157C240.609 52.7786 240.649 52.6246 240.649 52.4681C240.65 52.3212 240.62 52.1756 240.561 52.0406C240.503 51.9056 240.416 51.7842 240.307 51.684C239.987 51.41 239.617 51.1973 239.218 51.0568L238.264 50.6648C237.729 50.4763 237.241 50.1769 236.833 49.7867C236.515 49.4517 236.344 49.0066 236.356 48.5479C236.344 48.2583 236.405 47.9702 236.532 47.7091C236.66 47.4479 236.851 47.2217 237.088 47.0503C237.641 46.6698 238.306 46.4797 238.979 46.5094C240.145 46.5094 240.94 46.7184 241.364 47.1366C241.534 47.2969 241.651 47.5049 241.698 47.7325C241.749 48.0803 241.77 48.4317 241.761 48.7831H241.444C241.386 48.309 241.147 47.8744 240.776 47.5678C240.349 47.2595 239.826 47.1071 239.297 47.1366C238.885 47.1131 238.475 47.2203 238.129 47.4424C237.999 47.5288 237.892 47.6456 237.819 47.7823C237.745 47.9191 237.707 48.0716 237.708 48.2264C237.708 48.77 238.132 49.2143 238.979 49.5593L239.933 49.9513C240.52 50.157 241.06 50.474 241.523 50.8843C241.7 51.0774 241.833 51.3048 241.915 51.552C241.997 51.7991 242.025 52.0605 241.998 52.3191C241.971 52.5778 241.89 52.828 241.758 53.0535C241.627 53.279 241.45 53.4749 241.237 53.6285C240.647 54.0074 239.953 54.1965 239.25 54.1695C238.01 54.1773 237.178 53.9708 236.754 53.5501Z" fill="#1B202D"/>
<path d="M74.2729 41.2249H77.1027L61.0899 4.4375H57.7117L41.5479 41.2209H44.2624L49.8464 28.3822H68.7565L74.2729 41.2249ZM50.7605 26.2927L58.5065 8.48709L59.369 5.22154L60.295 8.6831L67.8463 26.2927H50.7605Z" fill="#1B202D"/>
<path d="M174.276 4.42188V41.2563L176.899 41.2523V4.43364L174.276 4.42188Z" fill="#1B202D"/>
<path d="M106.751 20.7261C108.484 16.9117 108.27 13.0228 105.651 9.44759C104.669 8.07889 103.387 6.94547 101.901 6.13118C100.415 5.31689 98.7628 4.84258 97.0659 4.74332C92.2966 4.42186 82.8734 4.4297 82.8734 4.4297H82.7979V41.2798H85.417V6.66423C88.2865 6.66423 93.632 6.71519 96.0445 6.77792C98.29 6.8328 102.006 8.44009 103.449 10.6981C106.032 14.7477 105.213 17.6448 104.244 19.7813C103.743 20.9323 102.993 21.9612 102.046 22.7956C101.099 23.63 99.9787 24.2497 98.7629 24.611C97.2821 25.003 95.7573 25.2111 94.2242 25.2304H91.2275L103.381 41.2602H106.604L95.345 26.6574C96.6565 26.6221 98.2145 26.5711 99.0292 26.4888C101.859 26.1948 105.178 24.1955 106.751 20.7261Z" fill="#1B202D"/>
<path d="M134.382 6.66032V4.42188H114.554V4.4258V6.66032V21.2357V23.5016V39.0178V41.2563V41.2719L117.173 41.2641V41.2563H134.382V39.0178H117.173V23.5016H133.79V21.2357H117.173V6.66032H134.382Z" fill="#1B202D"/>
<path d="M168.132 41.2562L155.351 22.4L167.472 4.42578H164.424L153.808 20.1223L143.169 4.42578H140.113L152.266 22.4039L139.517 41.2562L142.633 41.2719L153.808 24.6894L165.012 41.2719L168.132 41.2562Z" fill="#1B202D"/>
<path d="M221.519 4.41801L221.523 4.40625H218.884L205.642 36.6344L204.891 39.3354L204.1 36.6461L190.197 4.41801H187.423L187.427 4.42585L185.356 4.41801V41.272L187.976 41.2642V5.68032L203.603 41.2602H206.134L221.126 5.35886V41.2602L223.745 41.2642V4.42585L221.519 4.41801Z" fill="#1B202D"/>
<path fill-rule="evenodd" clip-rule="evenodd" d="M21.5412 0L19.5086 3.55172H20.9018L20.8728 19.8799L9.54497 7.99461L10.5123 7.13087L6.73662 5.70783L7.77857 9.5L8.795 8.65716L20.4179 20.852L3.60917 21.0616L3.62861 19.5893L0 21.3456L3.58092 23.3182L3.59619 22.0615L20.3913 21.8521L7.91959 33.7209L6.91429 32.8182L5.82633 36.6658L9.67751 35.5015L8.64417 34.4313L9.38571 33.7061L20.8677 22.7792L20.8389 38.9591H19.3089L21.5174 42.5187L23.3814 38.9983L21.883 38.9709L21.8581 28.3803L21.8688 22.3743L33.3941 34.4668L32.4107 35.4091L36.2822 36.6658L35.1375 32.8593L34.127 33.7864L22.7247 21.823L39.5014 21.6137V22.9294L43.1061 21.13L39.5014 19.358V20.614L22.9255 20.8207L34.4727 9.83176L35.4357 10.7955L36.5244 6.81727L32.6931 8.03253L33.7225 9.07531L30.3183 12.4049L21.8722 20.4427L21.9022 3.55642L23.3456 3.5674L21.5412 0Z" fill="#1B202D"/>
</g>
<defs>
<clipPath id="clip0_178_5970">
<rect width="242" height="57" fill="white"/>
</clipPath>
</defs>
</svg>
