<svg width="60" height="60" viewBox="0 0 60 60" fill="none" xmlns="http://www.w3.org/2000/svg">
<path d="M34.3908 25.6055C33.3519 24.566 32.6443 23.2417 32.3574 21.7999C32.0704 20.3578 32.2172 18.8629 32.7792 17.5043C33.3412 16.1456 34.2932 14.9841 35.515 14.1669C36.7368 13.3497 38.1733 12.9134 39.643 12.9134C41.1126 12.9134 42.5492 13.3497 43.771 14.1669C44.9927 14.9841 45.9448 16.1456 46.5068 17.5043C47.0688 18.8629 47.2155 20.3578 46.9286 21.7999C46.6417 23.2417 45.9341 24.566 44.8952 25.6055H34.3908ZM34.3908 25.6055C35.0801 26.2964 35.8987 26.8446 36.8 27.2186C37.7012 27.5926 38.6673 27.7852 39.643 27.7852C40.6187 27.7852 41.5848 27.5926 42.486 27.2186C43.3869 26.8447 44.2053 26.2968 44.8944 25.6063L34.3908 25.6055ZM51.8633 1.4207C54.6406 0.927509 57.006 0.866596 58.7547 1.24499C59.1356 3.0983 59.0706 5.52664 58.5756 8.32944C58.0644 11.2239 57.1062 14.4528 55.78 17.7464C53.1234 24.3435 49.0285 31.1057 44.2209 35.8934L44.2171 35.8972C42.5158 37.6099 40.6687 39.1709 38.6967 40.5626L38.2278 40.8935L38.277 41.4654C38.5289 44.3891 38.2953 47.2206 37.2611 49.5955C35.7884 52.9637 33.1045 55.1705 30.2948 56.6163C27.4811 58.0642 24.602 58.7158 22.865 58.9946L22.865 58.9946L22.857 58.9959C22.8126 59.0034 22.7671 59.0005 22.724 58.9875C22.6808 58.9744 22.6412 58.9515 22.6083 58.9204C22.5754 58.8894 22.55 58.8511 22.5343 58.8084L21.5962 59.1547L22.5343 58.8084C22.5187 58.7661 22.513 58.7206 22.5177 58.6756C22.5177 58.6754 22.5177 58.6751 22.5178 58.6748L23.8006 46.9875L23.9211 45.8894L22.8165 45.8784C21.9737 45.8701 21.1318 45.8189 20.2941 45.7251L20.2942 45.725L20.2803 45.7236C19.9041 45.6868 19.5524 45.5196 19.286 45.2508L19.2823 45.2472L14.7541 40.7256L14.7513 40.7228C14.4829 40.4569 14.3159 40.105 14.2795 39.7284L14.2788 39.7211L14.278 39.7137C14.1839 38.8704 14.1327 38.0228 14.1247 37.1743L14.1142 36.0685L13.015 36.1898L1.32259 37.4806C1.32231 37.4806 1.32204 37.4807 1.32177 37.4807C1.27743 37.4854 1.23257 37.4798 1.19068 37.4644L0.844443 38.4025L1.19066 37.4644C1.1485 37.4488 1.11044 37.4236 1.07952 37.3908L0.351288 38.0761L1.07951 37.3908C1.04858 37.3579 1.02562 37.3182 1.01252 37.2749C0.999418 37.2315 0.996549 37.1856 1.00417 37.1409L1.0051 37.1352C1.29123 35.3909 1.94604 32.5104 3.39464 29.6941C4.84117 26.8818 7.0465 24.1938 10.4124 22.7104C12.7825 21.6768 15.6238 21.449 18.5598 21.7089L19.133 21.7597L19.4649 21.2896C20.8552 19.3207 22.4143 17.4768 24.1245 15.7789L24.1273 15.7762C28.9175 10.9836 35.7776 6.88293 42.4269 4.22062C45.7461 2.89166 48.9875 1.93138 51.8633 1.4207ZM58.9767 1.2962C58.9749 1.29576 58.973 1.29535 58.9712 1.29488L58.9767 1.2962Z" stroke="#1B202D" stroke-width="2"/>
<path d="M2.71293 57.2874C2.72683 57.0279 2.74456 56.7277 2.76702 56.3938C2.84835 55.1849 2.99122 53.5418 3.23701 51.799C3.48344 50.0517 3.82991 48.2293 4.31193 46.6525C4.80394 45.043 5.39732 43.8272 6.05907 43.1647C6.05911 43.1647 6.05915 43.1646 6.05919 43.1646M2.71293 57.2874L6.05919 43.1646M2.71293 57.2874C2.97262 57.2735 3.2731 57.2557 3.60724 57.2332C4.81664 57.1519 6.46022 57.0089 8.20342 56.7629C9.9512 56.5162 11.7739 56.1695 13.3506 55.687C14.9602 55.1945 16.1755 54.6006 16.837 53.9384L16.8385 53.9369C17.8357 52.943 18.531 51.6944 18.854 50.3354C18.9016 50.1351 18.8378 49.8642 18.6025 49.6292L10.3652 41.4017C10.1297 41.1665 9.85826 41.1029 9.65734 41.1511C8.30064 41.4761 7.05381 42.1704 6.05919 43.1646M2.71293 57.2874L6.05919 43.1646" stroke="#1B202D" stroke-width="2"/>
</svg>
