<svg width="50" height="50" viewBox="0 0 50 50" fill="none" xmlns="http://www.w3.org/2000/svg">
<path fill-rule="evenodd" clip-rule="evenodd" d="M24.9238 0L22.5719 4.11252H24.2627L24.2287 23.2153L10.9853 9.30963L12.1635 8.2568L7.79492 6.60907L9.00049 11L10.237 9.97392L23.8055 24.2209L12.7479 24.3589L4.1754 24.4254L4.19839 22.6824L0 24.716L4.14321 27L4.16183 25.4662L23.7927 25.2212L9.2219 39.0981L8 38L6.74121 42.4552L11.1971 41.107L10.0015 39.8678L14.9987 34.9773L24.2234 26.1918L24.1899 45.1106H22.3408L24.8962 49.2322L27.0528 45.156L25.3192 45.1242L25.2736 25.7624L38.6948 39.8547L37.5005 41L41.9798 42.4552L40.6555 38.0476L39.4281 39.1746L26.1115 25.1922L45.7041 24.9477V26.5498L49.8749 24.4663L45.7041 22.4146V23.9476L26.3259 24.1895L39.8301 11.3284L41 12.5L42.2597 7.89368L37.8268 9.30083L39.0178 10.5083L30.9637 18.3916L25.269 23.8151L25.2455 13.801L25.2626 4.11736L27.0114 4.13067L24.9238 0Z" fill="#CED1D8"/>
</svg>
