<svg width="64" height="64" viewBox="0 0 64 64" fill="none" xmlns="http://www.w3.org/2000/svg">
<path d="M49.3729 34.9305C48.2327 36.0436 47.5811 37.6454 47.744 39.3558C47.9884 42.2879 50.6761 44.4326 53.6082 44.4326H58.7665V47.6634C58.7665 53.2832 54.1783 57.8714 48.5585 57.8714H21.111C21.9526 57.1655 22.6856 56.2967 23.2557 55.3194C24.2602 53.6904 24.8304 51.7629 24.8304 49.7267C24.8304 43.7268 19.9707 38.8671 13.9708 38.8671C11.4188 38.8671 9.05687 39.7631 7.18359 41.2563V29.3922C7.18359 23.7724 11.7717 19.1842 17.3916 19.1842H48.5585C54.1783 19.1842 58.7665 23.7724 58.7665 29.3922V33.3017H53.2824C51.762 33.3017 50.3774 33.8989 49.3729 34.9305Z" stroke="#1B202D" stroke-width="2" stroke-linecap="round" stroke-linejoin="round"/>
<path d="M7.18359 31.8356V19.4287C7.18359 16.198 9.16545 13.3201 12.179 12.1798L33.7352 4.03514C37.1017 2.75914 40.7125 5.25691 40.7125 8.86772V19.1843" stroke="#1B202D" stroke-width="2" stroke-linecap="round" stroke-linejoin="round"/>
<path d="M61.6408 36.0713V41.6641C61.6408 43.1573 60.4463 44.3789 58.9259 44.4332H53.6048C50.6727 44.4332 47.9849 42.2885 47.7406 39.3564C47.5777 37.646 48.2292 36.0442 49.3695 34.9311C50.374 33.8995 51.7586 33.3022 53.2789 33.3022H58.9259C60.4463 33.3565 61.6408 34.5781 61.6408 36.0713Z" stroke="#1B202D" stroke-width="2" stroke-linecap="round" stroke-linejoin="round"/>
<path d="M19.4004 30.7225H38.4046" stroke="#1B202D" stroke-width="2" stroke-linecap="round" stroke-linejoin="round"/>
<path d="M24.8304 49.7267C24.8304 51.7629 24.2603 53.6905 23.2558 55.3194C22.6857 56.2968 21.9527 57.1655 21.111 57.8714C19.2106 59.5818 16.7129 60.5863 13.9709 60.5863C10.0071 60.5863 6.55924 58.4687 4.68597 55.3194C3.68146 53.6905 3.11133 51.7629 3.11133 49.7267C3.11133 46.306 4.68596 43.2382 7.18366 41.2563C9.05693 39.7631 11.4189 38.8672 13.9709 38.8672C19.9708 38.8672 24.8304 43.7268 24.8304 49.7267Z" stroke="#1B202D" stroke-width="2" stroke-miterlimit="10" stroke-linecap="round" stroke-linejoin="round"/>
<path d="M9.73926 49.7254L12.427 52.4131L18.2097 47.0648" stroke="#1B202D" stroke-width="2" stroke-linecap="round" stroke-linejoin="round"/>
</svg>
